

<svg version="1.0" xmlns="http://www.w3.org/2000/svg"
 width="360.000000pt" height="360.000000pt" viewBox="0 0 360.000000 360.000000"
 preserveAspectRatio="xMidYMid meet">

<g transform="translate(0.000000,360.000000) scale(0.100000,-0.100000)"
fill="#000000" stroke="none">
<path d="M1021 2338 c-13 -7 -34 -26 -45 -41 -21 -28 -21 -38 -24 -544 l-3
-515 333 5 c371 4 404 9 538 74 105 51 229 176 288 290 24 46 51 87 62 93 30
16 80 12 109 -10 15 -10 97 -116 182 -235 l154 -215 138 0 c108 0 137 3 131
13 -8 12 -326 446 -422 575 l-55 74 224 224 224 224 -143 0 -143 0 -216 -220
c-118 -121 -219 -220 -224 -220 -5 0 -8 98 -8 218 l0 217 -53 3 c-68 4 -122
-12 -147 -45 -20 -25 -21 -38 -21 -347 l0 -321 -49 -50 c-27 -28 -73 -64 -103
-82 -88 -53 -147 -63 -370 -63 l-198 0 2 363 3 362 165 0 c218 -1 250 -16 250
-120 0 -99 -34 -117 -222 -123 l-138 -4 0 -94 0 -94 108 0 c139 0 219 -13 249
-42 32 -30 47 -91 35 -140 -10 -37 -9 -38 11 -32 46 13 123 61 170 104 50 46
50 46 38 82 -12 36 -76 104 -120 128 -22 11 -21 12 24 52 25 22 53 57 62 77
20 45 22 163 4 215 -21 59 -84 122 -149 148 -53 21 -75 22 -342 25 -218 3
-291 1 -309 -9z"/>
</g>
</svg>
